<svg id="Range_Full_Logo" data-name="Range Full Logo" xmlns="http://www.w3.org/2000/svg" width="248.737" height="85.046" viewBox="0 0 248.737 85.046">
  <path id="Path_1" data-name="Path 1" d="M90.839,110.2c-1.26-1.785-2.2-6.615-2.73-14.385-.42-7.349-3.885-12.284-12.915-12.284H56.505V110.2H47.581V44.056H74.459c16.8,0,24.884,7.769,24.884,19.529,0,10.184-6.929,15.539-15.014,16.484,8.085,1.575,11.969,6.51,12.6,14.28.84,9.659,1.155,13.439,3.36,15.854Zm-16.9-33.914c11.235,0,16.275-4.2,16.275-12.389,0-7.56-5.04-12.39-16.275-12.39H56.505V76.289Z" transform="translate(-47.581 -44.056)" fill="#7c7d7d"/>
  <path id="Path_2" data-name="Path 2" d="M144.283,101.173a3.213,3.213,0,0,0,3.57,3.57,8.712,8.712,0,0,0,3.989-1.05v4.725a8.948,8.948,0,0,1-7.035,2.73c-4.724,0-8.084-3.57-8.609-9.03-2.52,5.355-9.03,9.345-16.484,9.345-8.925,0-14.7-4.83-14.7-12.7,0-8.714,7.455-12.284,18.479-14.489l12.39-2.52V79.964c0-6.3-3.675-10.185-10.079-10.185-6.615,0-10.185,3.885-11.55,9.24l-7.77-1.05c1.785-8.61,8.61-14.909,19.424-14.909,11.55,0,18.375,5.879,18.375,17.534Zm-8.4-13.649-10.29,2.2c-7.244,1.575-11.864,2.94-11.864,8.5,0,3.885,2.625,6.825,7.874,6.825,8.085,0,14.28-6.09,14.28-15.329Z" transform="translate(-47.581 -44.056)" fill="#7c7d7d"/>
  <path id="Path_3" data-name="Path 3" d="M165.283,110.2h-8.715V64.32h8.715v8.189c2.205-5.564,8.4-9.449,15.224-9.449,11.97,0,16.8,7.979,16.8,18.689V110.2h-8.714V82.484c0-7.665-3.675-12.5-10.92-12.5-6.929,0-12.389,5.46-12.389,13.86Z" transform="translate(-47.581 -44.056)" fill="#7c7d7d"/>
  <path id="Path_4" data-name="Path 4" d="M224.815,94.243a25.022,25.022,0,0,1-10.08-1.889c-1.575.945-3.045,2.415-3.045,4.514,0,2.52,1.575,3.99,5.565,3.99h17.954c9.975,0,15.225,5.25,15.225,12.39,0,11.444-12.81,15.854-26.459,15.854-12.39,0-22.679-3.885-22.679-12.39,0-5.249,3.779-8.609,9.449-9.659-4.2-1.365-6.09-4.41-6.09-7.875,0-3.989,2.836-6.824,6.93-8.609A14.157,14.157,0,0,1,205.6,78.7c0-9.659,7.979-15.644,19.214-15.644,5.775,0,10.919,1.785,14.384,4.724a14.028,14.028,0,0,1,11.655-6.3v7.56a21.325,21.325,0,0,0-8.82,1.89,14.629,14.629,0,0,1,2.205,7.769C244.239,88.259,236.154,94.243,224.815,94.243Zm-.84,29.084c10.5,0,18.059-2.52,18.059-9.134,0-4.2-3.465-5.67-8.82-5.67h-14.8c-4.725,0-8.82,1.575-8.82,6.51C209.59,120.807,215.47,123.327,223.975,123.327Zm.945-54.6c-6.4,0-10.4,3.569-10.4,10.079,0,6.3,3.99,9.87,10.4,9.87,6.509,0,10.5-3.57,10.5-9.87C235.419,72.3,231.429,68.73,224.92,68.73Z" transform="translate(-47.581 -44.056)" fill="#7c7d7d"/>
  <path id="Path_5" data-name="Path 5" d="M296.108,94.769c-2.31,10.394-9.975,16.694-21.42,16.694-13.649,0-23.624-9.24-23.624-23.519,0-14.49,9.975-24.884,23.2-24.884,14.6,0,22.05,10.394,22.05,22.889v3.465H259.779c.42,8.924,6.825,15.224,15.015,15.224,7.664,0,12.179-3.675,14.069-10.71Zm-8.715-11.025c-.315-7.35-4.41-14.07-13.125-14.07-8.294,0-13.229,6.51-14.279,14.07Z" transform="translate(-47.581 -44.056)" fill="#7c7d7d"/>
</svg>
